<?xml version="1.0" standalone="no"?>
<!DOCTYPE svg PUBLIC "-//W3C//DTD SVG 20010904//EN"
 "http://www.w3.org/TR/2001/REC-SVG-20010904/DTD/svg10.dtd">
<svg version="1.0" xmlns="http://www.w3.org/2000/svg"
 width="1200.000000pt" height="1200.000000pt" viewBox="0 0 1200.000000 1200.000000"
 preserveAspectRatio="xMidYMid meet">

<g transform="translate(0.000000,1200.000000) scale(0.100000,-0.100000)"
fill="#000000" stroke="none">
<path d="M6625 9632 c-245 -97 -475 -340 -654 -690 -61 -120 -131 -284 -131
-307 0 -27 477 -91 758 -102 l162 -6 0 566 0 567 -32 0 c-18 -1 -65 -13 -103
-28z"/>
<path d="M6990 9095 l0 -568 163 6 c89 4 223 14 297 22 131 15 452 64 458 70
7 7 -73 195 -134 315 -171 337 -380 566 -620 676 -40 19 -94 37 -119 41 l-45
6 0 -568z"/>
<path d="M6040 9520 c-215 -82 -413 -192 -600 -333 -100 -76 -360 -322 -360
-341 0 -21 537 -185 550 -168 4 4 24 52 45 107 102 266 268 542 426 712 42 45
56 64 47 63 -2 0 -50 -19 -108 -40z"/>
<path d="M7626 9518 c162 -169 337 -458 445 -733 23 -60 43 -111 44 -112 7
-12 540 151 550 167 8 13 -196 217 -298 299 -191 155 -481 318 -692 391 l-90
31 41 -43z"/>
<path d="M4872 8572 c-76 -117 -177 -321 -227 -456 -67 -183 -122 -432 -140
-633 l-6 -73 454 0 454 0 7 133 c13 257 54 537 116 793 17 67 30 125 30 131 0
5 -48 22 -107 38 -86 22 -464 142 -508 161 -5 2 -38 -40 -73 -94z"/>
<path d="M8640 8610 c-91 -30 -230 -73 -310 -95 -80 -21 -146 -39 -148 -40 -1
-1 14 -64 33 -140 60 -238 93 -470 121 -847 l6 -78 450 0 451 0 -7 93 c-17
242 -90 524 -201 769 -49 109 -173 327 -212 374 l-18 20 -165 -56z"/>
<path d="M5765 8418 c-52 -154 -125 -560 -140 -783 -3 -49 -8 -120 -11 -157
l-6 -68 576 0 576 0 0 455 0 455 -42 0 c-211 1 -817 70 -931 106 -9 3 -19 0
-22 -8z"/>
<path d="M7810 8400 c-224 -40 -606 -79 -777 -80 l-43 0 0 -455 0 -455 570 0
570 0 0 58 c0 86 -27 359 -50 499 -31 193 -95 465 -109 462 -3 -1 -76 -14
-161 -29z"/>
<path d="M4500 7162 c0 -49 32 -283 51 -368 45 -209 106 -379 206 -578 55
-111 169 -296 182 -296 3 0 67 20 141 46 121 40 334 104 446 133 l40 11 -32
125 c-63 245 -108 542 -120 808 l-7 137 -454 0 c-425 0 -453 -1 -453 -18z"/>
<path d="M5615 7088 c20 -306 55 -544 114 -778 l36 -145 30 1 c17 0 104 12
195 27 211 34 424 56 617 64 l153 6 0 459 0 458 -575 0 -576 0 6 -92z"/>
<path d="M6990 6722 l0 -459 158 -7 c210 -9 408 -30 635 -67 103 -17 190 -29
193 -26 9 8 51 180 78 317 42 210 76 494 76 643 l0 57 -570 0 -570 0 0 -458z"/>
<path d="M8340 7171 c0 -5 -5 -78 -10 -163 -19 -279 -62 -553 -125 -798 -13
-52 -21 -98 -17 -101 4 -3 63 -20 132 -38 69 -18 205 -59 303 -92 98 -32 182
-59 186 -59 14 0 136 208 202 345 79 163 137 326 173 488 31 138 56 302 56
375 l0 52 -450 0 c-267 0 -450 -4 -450 -9z"/>
<path d="M6615 6053 c-251 -14 -500 -43 -696 -79 l-87 -16 30 -76 c174 -455
473 -818 768 -931 44 -17 91 -31 105 -31 l25 0 0 570 0 570 -47 -2 c-27 -1
-70 -3 -98 -5z"/>
<path d="M6990 5490 c0 -649 -11 -586 93 -551 257 89 494 325 681 681 57 110
151 329 143 336 -8 8 -287 53 -427 68 -108 12 -420 36 -477 36 -10 0 -13 -121
-13 -570z"/>
<path d="M5465 5870 c-77 -22 -198 -59 -270 -83 l-130 -44 135 -134 c193 -192
384 -330 611 -444 93 -47 308 -135 329 -135 6 0 -17 31 -51 70 -162 180 -303
419 -418 705 -22 55 -46 101 -53 102 -7 1 -76 -16 -153 -37z"/>
<path d="M8080 5823 c-102 -272 -250 -524 -423 -723 -31 -35 -55 -66 -53 -68
6 -6 197 68 291 114 201 96 409 237 576 390 85 77 199 196 199 207 0 11 -508
167 -545 167 -6 0 -26 -39 -45 -87z"/>
<path d="M9315 4797 c-98 -26 -20 18 -1195 -670 -338 -198 -627 -371 -642
-385 -55 -51 -49 -81 44 -219 103 -153 130 -338 74 -509 -61 -190 -209 -330
-411 -390 -85 -25 -219 -22 -310 6 -119 38 -1528 589 -1555 609 -53 39 -27
121 40 121 16 0 76 -18 132 -41 57 -23 335 -131 618 -241 283 -110 585 -227
670 -260 122 -48 170 -62 226 -66 156 -10 298 56 391 181 129 176 106 441 -52
586 -65 60 -130 88 -815 354 -333 129 -843 328 -1135 442 -291 113 -571 217
-622 230 -368 96 -733 31 -1032 -183 -66 -47 -518 -405 -1186 -937 -104 -83
-234 -185 -288 -225 -62 -46 -96 -78 -93 -87 4 -10 1052 -1319 1087 -1357 11
-12 4 -18 411 306 186 147 349 275 363 284 37 24 98 35 147 25 23 -4 468 -117
988 -249 1447 -369 1335 -342 1433 -342 110 0 214 22 302 64 52 25 206 141
590 448 286 227 894 710 1350 1072 457 362 849 677 873 700 89 85 137 242 115
373 -17 97 -61 179 -137 251 -85 82 -156 115 -256 119 -41 1 -97 -3 -125 -10z"/>
</g>
</svg>
